# xmcd
#
# Track frame offsets:
#	150
#	12691
#	24633
#	37457
#	49631
#	66695
#	79328
#	90376
#	100049
#	111235
#	125452
#	140179
#	150782
#	164737
#	173916
#	183958
#	195853
#	208355
#	220123
#	228958
#	243493
#	251251
#	260138
#	276713
#	297292
#	311897
#	326370
#
# Disc length: 4477 seconds
#
# Revision: 0
# Processed by: cddbd v1.4PL0 Copyright (c) Steve Scherf et al.
# Submitted via: MusicWizard 6.0.0
#
DISCID=9e117b1b
DTITLE=Johnny Cash - Destination Victoria Station and Understand Your Man
DYEAR=2002
DGENRE=Country
TTITLE0=Casey Jones
TTITLE1=Hey Porter
TTITLE2=John Henry
TTITLE3=Wabash Cannonball
TTITLE4=City Of New Orleans
TTITLE5=Folsom Prison Blues
TTITLE6=Crystal Chandeliers And Burgundy
TTITLE7=Wreck Of The Old 97
TTITLE8=Waiting For A Train
TTITLE9=Orange Blossom Special
TTITLE10=Texas 1947
TTITLE11=Destination Victoria Station
TTITLE12=Orange Blossom Special
TTITLE13=A Certain Kinda Hurtin'
TTITLE14=Time And Time Again
TTITLE15=Still In Town
TTITLE16=Understand Your Man
TTITLE17=I'd Still Be There
TTITLE18=I Want To Go Home
TTITLE19=Sing A Traveling Song  (With June Carter)
TTITLE20=I Got Stripes
TTITLE21=A Little At A Time  (With Gordon Terry)
TTITLE22=Time Of The Preacher
TTITLE23=San Quentin
TTITLE24=A Boy Named Sue
TTITLE25=He Turned The Water Into Wine
TTITLE26=Jesus
EXTD=
EXTT0=
EXTT1=
EXTT2=
EXTT3=
EXTT4=
EXTT5=
EXTT6=
EXTT7=
EXTT8=
EXTT9=
EXTT10=
EXTT11=
EXTT12=
EXTT13=
EXTT14=
EXTT15=
EXTT16=
EXTT17=
EXTT18=
EXTT19=
EXTT20=
EXTT21=
EXTT22=
EXTT23=
EXTT24=
EXTT25=
EXTT26=
PLAYORDER=
